PathFileType	4	(X/Y/Z)	C:/Users/opensim2020/Desktop/walking_exp_matlab/subject06_walking21_straight_04.trc	
DataRate	CameraRate	NumFrames	NumMarkers	Units	OrigDataRate	OrigDataStartFrame	OrigNumFrames	
100.00	100.00	6	44	mm	100.00	2348	104	
Frame#	Time	LFHD			RFHD			LBHD			RBHD			C7			T10			CLAV			STRN			RBAK			LSHO			LUPA			LELB			LFRM			LWRA			LWRB			LFIN			RSHO			RUPA			RELB			RFRM			RWRA			RWRB			RFIN			LASI			RASI			LPSI			RPSI			LTHI			LKNE			LTIB			LANK			LHEE			LTOE			RTHI			RKNE			RTIB			RANK			RHEE			RTOE			*39			*40			*41			*42			*43			
		X1	Y1	Z1	X2	Y2	Z2	X3	Y3	Z3	X4	Y4	Z4	X5	Y5	Z5	X6	Y6	Z6	X7	Y7	Z7	X8	Y8	Z8	X9	Y9	Z9	X10	Y10	Z10	X11	Y11	Z11	X12	Y12	Z12	X13	Y13	Z13	X14	Y14	Z14	X15	Y15	Z15	X16	Y16	Z16	X17	Y17	Z17	X18	Y18	Z18	X19	Y19	Z19	X20	Y20	Z20	X21	Y21	Z21	X22	Y22	Z22	X23	Y23	Z23	X24	Y24	Z24	X25	Y25	Z25	X26	Y26	Z26	X27	Y27	Z27	X28	Y28	Z28	X29	Y29	Z29	X30	Y30	Z30	X31	Y31	Z31	X32	Y32	Z32	X33	Y33	Z33	X34	Y34	Z34	X35	Y35	Z35	X36	Y36	Z36	X37	Y37	Z37	X38	Y38	Z38	X39	Y39	Z39	X40	Y40	Z40	X41	Y41	Z41	X42	Y42	Z42	X43	Y43	Z43	X44	Y44	Z44	

66	0.650	1502.57690	153.75441	1662.05432	1371.78625	159.59937	1643.59814	1511.23474	287.44760	1608.81689	1382.63123	292.28860	1596.09692	1459.43811	289.80652	1445.33569	1458.04541	315.49115	1114.96790	1457.83813	177.26770	1371.58838	1470.80652	131.36241	1197.43250	1386.25464	358.33813	1269.53186	1619.68811	234.16365	1404.40295	1694.88501	216.25352	1205.44165	1710.61682	203.30571	1094.51184	1732.16687	109.00803	980.46716	1690.99573	-7.89610	929.78162	1721.47595	37.82178	884.43225	1727.87341	-45.96692	852.27197	1296.62817	228.19682	1398.06677	1211.07715	296.87399	1210.08997	1193.78528	310.58807	1089.46423	1169.03186	324.64505	971.12695	1186.90601	299.17166	818.21033	1151.75891	354.48087	837.35339	1144.82446	342.39386	753.22968	1571.29614	145.94626	950.29211	1352.42761	126.18170	971.46637	1532.45251	299.42633	978.43896	1365.98975	280.39264	992.61591	1622.36084	220.06985	628.52155	1609.02124	218.25089	465.33078	1604.57397	418.79486	319.16528	1568.40125	560.50665	224.59990	1523.90588	587.57703	255.91705	1547.60901	540.13556	78.63759	1295.81458	127.32742	640.56122	1331.73242	95.51049	522.02625	1338.11243	118.06560	254.93350	1389.89001	126.08913	72.31036	1435.24060	165.75188	48.28804	1394.78101	-26.21506	39.48458	1445.40002	256.36334	1697.56018												 
67	0.660	1502.21240	138.93811	1664.52722	1371.46729	144.57922	1645.89355	1510.86865	272.56317	1611.40735	1382.23364	277.30844	1598.40283	1458.90588	274.91449	1447.68250	1456.85107	300.32480	1117.34143	1457.76794	162.39458	1374.03516	1470.53479	116.44422	1199.90198	1384.97974	343.18137	1272.21985	1619.48169	220.08450	1406.57373	1694.17725	204.26801	1207.02637	1709.18652	192.27419	1095.67053	1731.05908	101.57557	978.35095	1690.75439	-14.03618	923.65472	1720.75024	33.52123	880.06598	1727.89282	-48.67353	844.63782	1296.36084	212.53197	1400.66235	1209.96497	279.11008	1212.22607	1192.44104	291.52942	1091.43982	1167.91394	302.79562	972.78241	1186.23132	274.12424	820.55542	1150.41052	329.73154	838.38715	1143.74036	315.17538	754.67310	1570.99109	130.85478	953.07092	1351.92310	111.40678	972.78357	1531.37341	284.67682	980.66296	1364.88196	265.14319	994.58228	1621.95276	198.69458	630.92572	1608.72778	191.35254	468.14957	1604.02625	391.15482	323.02182	1567.75427	531.58221	227.03311	1523.51123	561.58319	255.76376	1550.27002	503.24216	81.51023	1296.33435	117.26550	641.05963	1331.62793	87.98225	521.73718	1338.03552	116.75783	254.99609	1390.10596	126.11088	72.50813	1435.34351	165.83990	48.40787	1394.82678	-26.33158	39.30070	1444.87573	241.40945	1700.01355												 
68	0.670	1501.95410	124.00526	1666.88477	1371.23169	129.53227	1648.11548	1510.52319	257.69318	1613.79578	1381.92139	262.24484	1600.72583	1458.45776	260.11136	1449.93225	1455.50769	285.26480	1119.66931	1457.76013	147.55258	1376.34399	1470.18359	101.54305	1202.24939	1383.84827	328.03055	1274.73523	1619.27429	206.15221	1408.61853	1693.48047	192.64951	1208.58862	1707.86035	181.41769	1096.94922	1730.34851	94.40609	976.21960	1690.48096	-19.40340	917.34351	1720.34155	30.21772	875.55493	1727.78699	-50.46165	836.82971	1296.11475	196.95616	1403.43262	1208.84058	261.46246	1214.42932	1191.19397	272.32498	1093.48328	1166.69922	280.90854	974.55420	1185.91711	248.87862	823.42749	1149.38025	304.40341	839.50696	1142.78967	287.14224	756.45526	1570.52344	115.68830	955.87628	1351.37207	96.51737	974.10718	1530.48730	269.84003	982.91992	1363.95032	250.14067	996.43396	1621.59338	177.20013	633.86041	1608.44287	164.73134	471.38449	1603.67395	362.01166	325.31027	1567.38770	501.19080	226.16376	1522.70703	532.95282	253.31163	1553.13538	465.29288	83.10808	1296.46472	106.83207	642.00262	1331.01025	80.70889	521.73401	1337.46057	115.26691	255.01715	1390.12109	126.12947	72.61917	1435.37878	165.98009	48.47090	1394.60681	-26.18707	39.26374	1444.49609	226.42058	1702.34802												 
69	0.680	1501.91992	109.03291	1669.01013	1371.13843	114.42606	1650.26794	1510.21753	242.73334	1616.07361	1381.58618	247.28957	1603.03040	1458.07837	245.34250	1452.08655	1454.28931	270.22327	1121.79053	1457.67590	132.78098	1378.49219	1469.71912	86.63400	1204.50134	1382.56824	312.76331	1276.99060	1618.99609	192.30791	1410.50989	1692.79065	181.21027	1209.98682	1706.64001	170.75304	1098.14258	1729.23096	87.99532	974.16254	1690.18640	-24.03504	910.83289	1720.43164	28.04615	871.31439	1727.76758	-51.52276	829.25385	1295.93176	181.55701	1406.04211	1207.71692	244.01399	1216.58606	1189.88391	252.92397	1095.53662	1165.66455	258.77094	976.45599	1185.49536	222.93028	826.30060	1148.46594	278.86963	840.77222	1141.90112	258.68314	758.45142	1569.90771	100.38609	958.70728	1350.88855	81.72119	975.50568	1529.83960	254.94098	985.20856	1363.31787	235.40948	998.21814	1621.29504	155.61241	637.12274	1608.38879	138.25208	475.00818	1603.36133	332.11792	325.90869	1566.81201	469.90347	223.57962	1521.29529	502.89832	248.96706	1556.68921	427.38464	83.23033	1296.58740	96.72217	642.80255	1330.44421	73.92310	521.54144	1336.84204	112.73556	255.03035	1389.98901	125.98444	72.63177	1435.43469	165.98640	48.53387	1394.89685	-26.43603	38.93503	1444.26465	211.39319	1704.56580												 
70	0.690	1501.85559	94.02692	1670.82971	1371.12634	99.35133	1652.15918	1510.12573	228.01019	1618.20715	1381.36279	232.26129	1605.20605	1457.56091	230.53308	1454.10864	1453.14233	255.24864	1123.76331	1457.55164	118.12170	1380.47644	1469.26025	71.83848	1206.59070	1381.29944	297.67322	1279.24268	1618.67786	178.48764	1412.25000	1692.12231	169.43184	1211.46936	1705.63525	160.37483	1099.32678	1728.47290	81.77462	972.19232	1689.97571	-27.95339	904.31525	1719.20142	25.20861	866.74884	1727.53076	-51.68051	821.54352	1295.82178	166.28506	1408.54102	1206.70459	226.64819	1218.79675	1188.73486	233.90637	1097.61987	1164.52478	236.27020	978.35938	1185.26721	196.92583	829.61145	1147.67529	252.83801	842.17493	1141.24023	229.66631	760.75739	1569.22778	85.08768	961.42682	1350.35986	67.24588	977.01007	1529.40527	239.98997	987.46899	1362.91833	220.82126	999.87726	1621.38550	134.45509	640.45062	1608.16858	111.74594	478.81967	1602.84094	302.37518	325.66415	1565.94788	437.79495	219.74020	1519.54224	471.48639	242.79056	1559.01819	387.85822	82.04678	1296.66687	86.75444	643.44824	1329.96436	67.55979	521.27209	1336.40991	109.34659	255.14510	1389.86011	125.68953	72.72076	1434.97925	166.09814	48.81465	1394.41858	-26.43522	38.76075	1444.19592	196.20918	1706.64722												 
71	0.700	1501.95129	78.97159	1672.33093	1371.16394	84.24660	1653.89941	1510.00708	213.07195	1620.08154	1381.30322	217.28987	1607.29749	1457.19165	215.77821	1455.88721	1452.08740	240.32083	1125.52673	1457.48413	103.40430	1382.24475	1468.71423	57.10285	1208.40173	1380.12354	282.64551	1281.40967	1618.36475	164.57912	1413.83875	1691.56653	157.66438	1212.86157	1704.65796	150.12837	1100.44202	1727.80969	75.86613	970.35370	1689.76184	-31.22120	897.84918	1719.06653	23.82867	862.59210	1727.29602	-51.10553	813.94525	1295.75781	151.11197	1410.82263	1205.60962	209.35922	1220.89319	1187.57483	215.11784	1099.64514	1163.53308	214.08507	980.38416	1184.91858	170.73930	833.40515	1147.05298	225.76526	843.79803	1140.64087	200.47668	763.38721	1568.40674	69.90906	963.91821	1349.69202	52.88152	978.57263	1529.22034	224.91782	989.54999	1362.70142	206.26337	1001.35095	1621.57007	113.30412	643.71680	1608.35193	85.90807	482.74615	1602.12512	272.81201	324.53876	1565.10852	404.59042	214.13239	1517.89819	439.17206	235.08476	1561.33508	347.38013	79.53974	1296.50330	76.96976	643.97333	1328.99341	60.88386	520.77026	1336.16443	105.92231	255.06070	1389.69666	125.56094	72.90416	1434.76965	166.12233	49.03740	1394.27002	-26.58978	38.58152	1444.20630	181.00865	1708.52185												 
